<svg width="366" height="72" viewBox="0 0 366 72" fill="none" xmlns="http://www.w3.org/2000/svg">
<path d="M54.0047 25.796L52.5886 27.2316C52.5523 27.2641 52.5233 27.3039 52.5035 27.3483C52.4837 27.3928 52.4735 27.441 52.4736 27.4897V36.8322C52.4757 36.9259 52.5137 37.0153 52.5799 37.0816L53.9483 38.5173C54.0397 38.6088 54.1637 38.6603 54.2931 38.6604C54.4207 38.6598 54.5435 38.6119 54.6379 38.526L56.1017 37.1098C56.138 37.0751 56.1669 37.0333 56.1866 36.9871C56.2064 36.9409 56.2166 36.8912 56.2166 36.8409V27.5157C56.2148 27.4194 56.1769 27.3273 56.1104 27.2576L54.703 25.8025C54.6587 25.7558 54.6051 25.719 54.5457 25.6943C54.4863 25.6697 54.4224 25.6578 54.3582 25.6593C54.23 25.6571 54.1062 25.7054 54.0133 25.7938" fill="#0078C9"/>
<path d="M44.6144 57.2678C51.1683 57.4298 57.5261 55.0252 62.3324 50.5666C68.0186 44.824 70.5732 37.8084 70.5732 28.7717C70.5732 11.4094 58.4635 0.00230305 39.6959 0.00230305C33.6544 -0.0629174 27.6784 1.2579 22.2271 3.86323C16.7758 6.46857 11.9945 10.2891 8.25047 15.0311C2.88049 21.6519 -0.0314197 29.9278 0.00957776 38.4525C-0.114227 43.4881 0.963747 48.4806 3.15417 53.0164C5.34459 57.5523 8.5844 61.5009 12.6051 64.5349C19.8762 69.8116 28.7407 72.4273 37.7116 71.9431C44.5451 71.7262 51.4002 69.9132 55.0088 67.1568C57.9755 64.8798 56.618 64.9275 55.6594 65.0597C55.1302 65.1698 54.6136 65.3333 54.1175 65.5477C48.9972 67.959 43.4186 69.2421 37.7593 69.3103C18.7684 69.3103 6.47867 57.9487 6.47867 39.3504C6.47867 26.6572 11.6661 15.9289 20.9696 9.20607C26.6835 5.06395 33.5827 2.87859 40.6393 2.97553C56.7004 2.97553 68.0338 13.2853 67.8993 28.609C67.8039 38.0665 66.1102 43.3212 61.0832 49.016C59.0483 51.1878 56.5502 52.8731 53.7746 53.9469C50.9989 55.0207 48.017 55.4553 45.0503 55.2184C39.7567 54.6632 39.1733 51.5143 39.1538 48.9293V14.452C39.1571 14.1583 39.0774 13.8697 38.9239 13.6193L37.7658 11.7044C37.6649 11.5198 37.5172 11.3652 37.3375 11.2559C37.1578 11.1466 36.9525 11.0866 36.7422 11.082C36.5333 11.0918 36.3303 11.1549 36.1526 11.2654C35.975 11.3758 35.8285 11.5299 35.7273 11.713L34.5974 13.628C34.4524 13.8782 34.3775 14.1628 34.3806 14.452V48.9011C34.3806 53.104 38.7634 56.7885 44.5841 57.2483" fill="#0078C9"/>
<path d="M60.4866 64.0512C60.4788 63.3873 60.6685 62.7361 61.0316 62.1802C61.3946 61.6242 61.9146 61.1887 62.5256 60.9289C63.1366 60.669 63.811 60.5966 64.4633 60.7207C65.1155 60.8449 65.7162 61.16 66.189 61.6261C66.6618 62.0922 66.9855 62.6883 67.119 63.3387C67.2524 63.9891 67.1896 64.6645 66.9386 65.2792C66.6875 65.8939 66.2595 66.4201 65.7088 66.791C65.1581 67.162 64.5097 67.361 63.8457 67.3628C63.4066 67.3703 62.9703 67.2901 62.5625 67.1269C62.1547 66.9637 61.7835 66.7209 61.4707 66.4125C61.1579 66.1041 60.9097 65.7365 60.7407 65.331C60.5717 64.9256 60.4853 64.4905 60.4866 64.0512ZM63.8457 66.8184C64.3957 66.8318 64.9372 66.6809 65.401 66.3851C65.8648 66.0893 66.2299 65.6619 66.4497 65.1576C66.6695 64.6533 66.734 64.0949 66.6349 63.5538C66.5359 63.0126 66.2778 62.5133 65.8936 62.1196C65.5094 61.7258 65.0166 61.4555 64.478 61.3432C63.9395 61.2308 63.3797 61.2816 62.8702 61.4889C62.3606 61.6962 61.9244 62.0507 61.6172 62.5071C61.3101 62.9635 61.146 63.5011 61.1458 64.0512C61.1341 64.4121 61.1955 64.7716 61.3261 65.1082C61.4568 65.4448 61.6542 65.7515 61.9063 66.01C62.1585 66.2684 62.4602 66.4732 62.7935 66.6122C63.1268 66.7511 63.4847 66.8212 63.8457 66.8184ZM63.1474 65.9661H62.5641V62.1385H64.0192C64.9192 62.1385 65.3681 62.4725 65.3681 63.2228C65.3818 63.3563 65.3673 63.4913 65.3254 63.6188C65.2835 63.7464 65.2152 63.8637 65.125 63.9631C65.0348 64.0625 64.9247 64.1418 64.8018 64.1959C64.6789 64.2499 64.546 64.2775 64.4118 64.2768L65.4961 65.9618H64.8173L63.8609 64.305H63.2103L63.1474 65.9661ZM63.8371 63.8214C64.325 63.8214 64.7934 63.8213 64.7934 63.1989C64.7934 62.5765 64.3597 62.6351 63.9607 62.6351H63.1756V63.8214H63.8371Z" fill="#0078C9"/>
<path d="M29.9522 16.0221L28.5447 17.6594C28.4273 17.7991 28.3628 17.9757 28.3625 18.1582V41.6079C28.3628 41.7904 28.4273 41.967 28.5447 42.1067L29.9609 43.7331C30.0282 43.8108 30.1115 43.8731 30.2051 43.9158C30.2986 43.9584 30.4002 43.9805 30.503 43.9805C30.6058 43.9805 30.7075 43.9584 30.801 43.9158C30.8945 43.8731 30.9778 43.8108 31.0452 43.7331L32.4527 42.0958C32.5716 41.957 32.6364 41.7798 32.6348 41.597V18.156C32.6348 17.9735 32.5703 17.7968 32.4527 17.6573L31.0452 16.0199C30.9788 15.9398 30.8952 15.8758 30.8005 15.8326C30.7059 15.7894 30.6027 15.7682 30.4987 15.7705C30.395 15.7702 30.2924 15.7923 30.1981 15.8353C30.1038 15.8784 30.0199 15.9413 29.9522 16.0199" fill="#0078C9"/>
<path d="M24.7061 20.3571C24.6343 20.3582 24.5637 20.375 24.4992 20.4065C24.4348 20.438 24.378 20.4833 24.3331 20.5393L22.9256 22.2438C22.8458 22.3334 22.8018 22.4492 22.802 22.5691V41.7118C22.8018 41.8317 22.8458 41.9475 22.9256 42.0371L24.3808 43.798C24.4283 43.8529 24.4874 43.8967 24.5537 43.9263C24.62 43.9559 24.692 43.9706 24.7646 43.9694C24.8392 43.9704 24.9129 43.9536 24.9797 43.9204C25.0464 43.8872 25.1043 43.8386 25.1485 43.7785L26.5169 42.0653C26.5845 41.9702 26.6216 41.8567 26.6232 41.74V22.5301C26.6255 22.4072 26.5814 22.2879 26.4996 22.1961L25.0834 20.5306C25.0378 20.4762 24.9807 20.4326 24.9162 20.403C24.8517 20.3733 24.7814 20.3584 24.7104 20.3593" fill="#0078C9"/>
<path d="M19.1825 25.6596C19.1198 25.6578 19.0575 25.6698 18.9998 25.6945C18.9422 25.7192 18.8906 25.7561 18.8486 25.8027L17.4324 27.2579C17.3659 27.3275 17.328 27.4196 17.3262 27.5159V36.8411C17.3311 36.9416 17.3719 37.0371 17.4411 37.1101L18.9049 38.5262C18.9975 38.6155 19.1211 38.6654 19.2498 38.6654C19.3784 38.6654 19.502 38.6155 19.5946 38.5262L20.963 37.0905C21.0223 37.0207 21.056 36.9327 21.0584 36.8411V27.4877C21.0577 27.3912 21.0196 27.2987 20.9521 27.2297L19.536 25.794C19.4399 25.7053 19.3133 25.6572 19.1825 25.6596Z" fill="#0078C9"/>
<path d="M43.0444 15.7725C42.9404 15.7708 42.8375 15.7923 42.7429 15.8355C42.6484 15.8786 42.5646 15.9423 42.4979 16.0219L41.0904 17.6593C40.9728 17.7988 40.9083 17.9755 40.9082 18.158V41.5969C40.9067 41.7797 40.9714 41.9569 41.0904 42.0957L42.4979 43.733C42.5652 43.8106 42.6485 43.8729 42.7421 43.9156C42.8356 43.9583 42.9372 43.9804 43.04 43.9804C43.1428 43.9804 43.2445 43.9583 43.338 43.9156C43.4315 43.8729 43.5148 43.8106 43.5822 43.733L44.9983 42.1065C45.122 41.9699 45.1901 41.792 45.1892 41.6077V18.1559C45.1901 17.9716 45.122 17.7937 44.9983 17.6571L43.5909 16.0198C43.5232 15.9412 43.4393 15.8782 43.345 15.8351C43.2506 15.7921 43.1481 15.77 43.0444 15.7704" fill="#0078C9"/>
<path d="M48.4419 20.5286L47.0257 22.1942C46.9476 22.2881 46.904 22.406 46.9021 22.5281V41.7597C46.9037 41.8764 46.9407 41.9899 47.0084 42.085L48.444 43.7983C48.4882 43.8583 48.5461 43.907 48.6128 43.9402C48.6796 43.9734 48.7533 43.9902 48.8279 43.9891C48.9 43.9902 48.9714 43.9756 49.0373 43.9464C49.1032 43.9172 49.162 43.8741 49.2096 43.82L50.6734 42.059C50.7508 41.9686 50.7918 41.8527 50.7884 41.7337V22.5867C50.7918 22.4678 50.7508 22.3518 50.6734 22.2614L49.266 20.5568C49.2206 20.5014 49.1638 20.4564 49.0994 20.4249C49.035 20.3935 48.9646 20.3763 48.8929 20.3747C48.8202 20.3722 48.7478 20.3863 48.6812 20.416C48.6147 20.4457 48.5558 20.4902 48.5091 20.546" fill="#0078C9"/>
<path d="M365.751 55.9054V30.5973C365.751 23.8961 362.248 19.8581 355.222 19.8581C350.436 19.8581 346.493 22.3954 342.837 25.6007V2.32236L337.907 3.2115V55.9098H342.837V30.3782C346.714 26.5506 350.494 24.2626 354.257 24.2626C358.727 24.2626 360.824 27.019 360.824 31.5753V55.9076L365.751 55.9054ZM332.815 52.6134L332.137 48.1438C329.226 50.8631 325.38 52.3573 321.398 52.3163C314.228 52.3163 309.904 46.9467 309.904 38.2201C309.904 29.4934 314.241 24.1108 320.949 24.1108C324.938 24.1362 328.774 25.6559 331.699 28.3701L332.512 23.4407C329.16 21.0523 325.133 19.7978 321.018 19.8603C312.059 19.8603 304.898 26.4269 304.898 38.2938C304.898 49.9417 311.838 56.6536 320.864 56.6536C325.195 56.751 329.422 55.325 332.809 52.6243L332.815 52.6134ZM296.159 34.7155H276.91C277.866 27.9298 281.464 23.8224 286.979 23.8224C292.654 23.8224 295.593 28.3766 296.159 34.7155ZM301.231 37.5868C301.231 27.804 296.608 19.8971 286.979 19.8971C278.365 19.8971 271.759 26.9127 271.759 38.257C271.759 50.4231 278.393 56.6905 287.649 56.6905C292.608 56.7122 297.408 54.9407 301.164 51.7026L300.418 47.2222C297.046 50.4236 292.621 52.2823 287.974 52.4486C280.891 52.4486 276.862 47.2981 276.708 38.6451H301.259L301.231 37.5868ZM270.477 55.9163L269.703 51.7959C268.621 52.0073 267.523 52.132 266.42 52.1689C262.59 52.1689 261.194 50.5988 261.194 47.0183V24.7788H270L269.33 20.6063H261.194V7.53797L256.34 8.36206V20.6041H250.927V24.7766H256.373V47.8359C256.373 54.3419 260.029 56.4975 265.552 56.4975C267.214 56.5125 268.871 56.3127 270.482 55.9033L270.477 55.9163ZM248.667 55.9033V29.9272C248.667 23.226 245.087 19.1099 238.368 19.1099C233.526 19.1099 229.755 21.7123 226.356 24.9306L225.532 19.8581H217.922V55.9054H226.881V31.5732C227.871 30.2988 229.11 29.2382 230.521 28.4555C231.933 27.6728 233.488 27.1841 235.094 27.019C238.377 27.019 239.726 29.1876 239.726 32.3213V55.9054L248.667 55.9033ZM204.926 34.0346H190.567C191.237 28.138 194.147 25.3057 197.737 25.3057C202.063 25.3057 204.303 28.4351 204.893 34.0346H204.926ZM213.622 37.4719C213.622 27.2489 208.768 19.1121 197.953 19.1121C188.554 19.1121 181.537 26.2057 181.537 37.9208C181.537 50.9002 189.071 56.6428 199.148 56.6428C204.277 56.7093 209.297 55.17 213.507 52.2404L212.464 45.2335C208.921 48.0117 204.579 49.5785 200.079 49.7031C194.555 49.7031 190.823 46.6496 190.372 39.634H213.507C213.507 39.1071 213.583 38.2179 213.583 37.4654L213.622 37.4719ZM170.29 37.4177C170.29 45.3246 166.777 49.1284 162.153 49.1284C159.744 49.2095 157.354 48.6688 155.214 47.5583V32.0915C157.599 29.038 160.134 27.019 163.35 27.019C167.38 27.019 170.29 30.4563 170.29 37.3938V37.4177ZM179.316 36.8668C179.316 24.7766 173.276 19.1121 165.734 19.1121C163.588 19.1802 161.484 19.7239 159.574 20.7038C157.664 21.6838 155.996 23.0756 154.689 24.7788L153.865 19.8581H146.255V69.7848L155.214 68.4359V54.8537C157.888 55.8357 160.72 56.3193 163.569 56.2806C171.858 56.2806 179.316 50.3082 179.316 36.869V36.8668ZM142.56 45.3007C142.56 38.515 138.903 35.9755 129.58 33.59C124.2 32.1739 122.879 31.1308 122.879 29.1876C122.879 27.2445 124.505 25.9347 127.884 25.9347C131.898 26.0835 135.815 27.2107 139.294 29.218L140.491 21.7622C136.517 20.0286 132.219 19.1671 127.884 19.2357C119.518 19.2357 114.599 23.6381 114.599 29.8317C114.599 36.3984 118.255 38.9401 126.984 41.1738C132.727 42.5899 134.297 43.633 134.297 46.1617C134.297 48.4778 132.211 49.8939 128.324 49.8939C123.634 49.741 119.082 48.2677 115.191 45.6434L113.994 53.0992C118.333 55.3251 123.131 56.508 128.008 56.5539C137.485 56.5539 142.557 52.3705 142.557 45.2769L142.56 45.3007ZM101.323 45.9557C100.247 47.1345 98.9479 48.0869 97.5001 48.7572C96.0523 49.4275 94.4853 49.8022 92.8908 49.8592C92.3153 49.9267 91.7319 49.8666 91.1821 49.6834C90.6323 49.5002 90.1295 49.1983 89.7094 48.7991C89.2894 48.3999 88.9622 47.9132 88.7512 47.3735C88.5402 46.8337 88.4505 46.2542 88.4885 45.6759C88.4885 42.2494 90.9477 39.1851 101.325 37.923L101.323 45.9557ZM110.281 55.8816V31.2001C110.281 22.5863 105.649 19.1099 96.326 19.1099C91.3968 19.1059 86.5159 20.0819 81.9673 21.9812L83.0864 29.1378C86.8447 27.3487 90.9374 26.3704 95.0985 26.2665C99.052 26.2665 101.292 27.7607 101.292 31.6469V32.69C86.7427 34.1061 79.5731 37.9165 79.5731 46.6453C79.4854 48.0002 79.6917 49.3581 80.1777 50.6258C80.6637 51.8936 81.4179 53.0414 82.3889 53.9905C83.3598 54.9396 84.5244 55.6676 85.8029 56.1246C87.0814 56.5816 88.4436 56.7569 89.7962 56.6385C92.0731 56.6435 94.3246 56.16 96.3987 55.2206C98.4728 54.2812 100.321 52.9077 101.819 51.193L102.565 55.9033L110.281 55.8816Z" fill="#0078C9"/>
</svg>
